<svg width="611" height="515" viewBox="0 0 611 515" fill="none" xmlns="http://www.w3.org/2000/svg">
<path d="M507.239 15.4045C500.088 -5.19792 454.126 -2.00556 454.126 -2.00556V-23L-40.0002 -16.8553V389.209C-40.0002 389.209 -38.0603 485.409 6.67607 502.374C39.9212 514.981 60.2236 481.592 95.7369 483.428C133.077 485.358 149.112 516.828 186.407 514.152C235.595 510.62 240.645 442.796 289.953 441.951C322.135 441.399 335.118 468.172 367.211 470.626C417.943 474.506 474.62 471.91 488.462 423.005C495.155 399.36 470.059 382.565 480.951 360.533C496.899 328.273 549.759 372.23 571.621 343.636C591.427 317.73 564.403 291.958 571.621 260.17C579.113 227.174 616.031 215.576 609.713 182.337C604.624 155.564 566.552 155.787 565.183 128.57C564.587 116.717 572.513 110.704 571.621 98.8705C569.047 64.7116 499.401 88.405 495.973 54.3212C494.39 38.5797 512.429 30.352 507.239 15.4045Z" fill="url(#paint0_linear_9_238)"/>
<defs>
<linearGradient id="paint0_linear_9_238" x1="482.616" y1="488.592" x2="114.416" y2="-26.7742" gradientUnits="userSpaceOnUse">
<stop stop-color="#F4CF00"/>
<stop offset="1" stop-color="#D7B600" stop-opacity="0.5"/>
</linearGradient>
</defs>
</svg>
